<svg id="Layer_1" data-name="Layer 1" xmlns="http://www.w3.org/2000/svg" viewBox="0 0 1080 1080"><defs><style>.cls-1{fill:#e62580;}</style></defs><path class="cls-1" d="M872.72,50C786,50,715.43,120.55,715.43,207.28a156.86,156.86,0,0,0,2.09,24.39c-.34.3-.72.52-1,.85l-80.15,80.16a56.34,56.34,0,0,0,0,79.58L662,418a24.19,24.19,0,0,0,34.21-34.21l-25.69-25.71a7.89,7.89,0,0,1,0-11.16l64.21-64.21a157.41,157.41,0,0,0,138,81.89C959.44,364.57,1030,294,1030,207.28S959.44,50,872.72,50Zm0,266.17A108.89,108.89,0,1,1,981.6,207.28,109,109,0,0,1,872.72,316.17Z"/><path class="cls-1" d="M419.16,674.13a24.19,24.19,0,0,0-34.22,34.21l25.71,25.71a7.89,7.89,0,0,1,0,11.16l-61,61c-25.11-53.55-79.39-90.81-142.34-90.81C120.55,715.43,50,786,50,872.72S120.55,1030,207.28,1030s157.29-70.56,157.29-157.28c0-4.22-.31-8.37-.64-12.5.25-.23.54-.4.79-.64l80.15-80.16a56.25,56.25,0,0,0,0-79.58ZM207.28,981.6A108.89,108.89,0,1,1,316.17,872.72,109,109,0,0,1,207.28,981.6Z"/><path class="cls-1" d="M757.93,335.36a24.2,24.2,0,1,0-34.22,34.22l25.71,25.71a7.85,7.85,0,0,1,.12,11L682,472.9c-25.24-53.21-79.34-90.18-142-90.18-86.73,0-157.28,70.55-157.28,157.28a157.34,157.34,0,0,0,2.06,24.22l-75.13,75.12a56.26,56.26,0,0,0,0,79.59l25.71,25.71a24.2,24.2,0,1,0,34.22-34.22l-25.71-25.71a7.88,7.88,0,0,1,0-11.15L402,615.4a157.37,157.37,0,0,0,138,81.88c86.72,0,157.28-70.56,157.28-157.28,0-4.55-.3-9-.68-13.49l87-85.85a56.35,56.35,0,0,0,0-79.59ZM540,648.89A108.89,108.89,0,1,1,648.89,540,109,109,0,0,1,540,648.89Z"/></svg>