<svg xmlns:xlink="http://www.w3.org/1999/xlink" xmlns="http://www.w3.org/2000/svg" viewBox="0 0 1744 1744" fill="none" shape-rendering="auto" width="1744"  height="1744" ><desc>"Notionists" by "Zoish", licensed under "CC0 1.0". / Remix of the original. - Created with dicebear.com</desc><metadata xmlns:dc="http://purl.org/dc/elements/1.1/" xmlns:cc="http://creativecommons.org/ns#" xmlns:rdf="http://www.w3.org/1999/02/22-rdf-syntax-ns#"><rdf:RDF><cc:Work><dc:title>Notionists</dc:title><dc:creator><cc:Agent rdf:about="https://bio.link/heyzoish"><dc:title>Zoish</dc:title></cc:Agent></dc:creator><dc:source>https://heyzoish.gumroad.com/l/notionists</dc:source><cc:license rdf:resource="https://creativecommons.org/publicdomain/zero/1.0/"/></cc:Work></rdf:RDF></metadata><mask id="viewboxMask"><rect width="1744" height="1744" rx="0" ry="0" x="0" y="0" fill="#fff"/></mask><g mask="url(#viewboxMask)"><g transform="translate(-436 -436) scale(1.5)"><g transform="translate(531 487)"><path d="M554 727.7c-99.2 297-363.8 388.6-503.7 19.8-19.3-50.7 31-69.5 66.2-91.9 24.1-15.3 36.8-28.5 35.3-42.2-7-64.4-36.9-243.8-36.9-243.8l-3-5.8s.7-1.6-2.2 1.2c-3 3-9.9 34.2-37 34.2-24.5 0-49.2-10.9-61-86.3C7.2 285.6 9.6 214 40 201c12.5-5.3 24-7.2 35.2-.8 11.3 6.4-13-22 112-126C268.4 6.4 396.7-3.5 448.5 8 500.3 19.5 552 44.8 574.9 98.5c27.8 65-25.9 114.3-14 262.5-2.2 53.6.8 171.2-146.6 210.6-28 7.5-19.3 48.4 22.7 58.4 67 21 117 72.3 117 97.9" fill="#fff"/><path fill-rule="evenodd" clip-rule="evenodd" d="m554 266.2.1-1.4c4.1-36.4 8.2-71.7 27.1-103.4 6.5 4.4 5.7 10 3.7 15.2-19.9 51.2-18 104.4-16.2 157.6l.4 14c2.1 66.4-14.5 126.8-58.7 177.5-15.4 17.6-35.8 29.8-56.5 40.3-21.4 11-25.9 20.1-19.2 43.6l.8 2.6c1.4 3.9 2.8 7.9-1 11.8-4.5 4.6-9.5 3.3-14.8 1.8l-.6-.1a406.4 406.4 0 0 1-137-68.3c-6-4.4-10.8-10.3-15.5-16.1l-.3-.4c-2.5-3-3-7.8.5-10.4 3.3-2.5 5.8-.5 8.7 1.8l1 .9a145.5 145.5 0 0 0 76.3 31.7c13.4 1.4 26.6.9 40 .4 7.4-.3 14.8-.6 22.3-.5 10.2 0 18.7-4.7 26.7-9.2l2.8-1.6c27.8-15.5 54.3-32.8 72.2-60.7 16.1-25 25.9-52.2 31.6-80.9 7.2-36.1 6.6-72.7 6-109.8-.3-12-.5-24.2-.5-36.4ZM50.6 190.8c21.9-1.7 34 11.2 44.3 26.3a140.4 140.4 0 0 1 22.4 61.5c.5 3.7 1 7.6-1.2 11.3-4.5.6-4.9-3-5-5.6-.5-20.7-9.7-38.7-18.9-56.1-6.6-12.5-16.2-24.6-31.4-27.6-17.2-3.5-33 12-40.8 32.2-14.5 37.6-12 74.6 1.4 111 5.8 15.9 13.1 32.1 27.8 43.2 14.8 11.3 32.7 9.3 43.6-5.7l2-2.5c2-2.6 4-5.1 5-8 2.1-5.8 5.4-11.2 11.3-10.4 6.8 1 8 8.3 8.7 14a3661 3661 0 0 0 22 156.7l5.9 38.8c2.6 17.1 5.6 41.7 3.6 52.1a28 28 0 0 0-.3 2.2c-.4 2.8-.6 5-4.2 5.5-4.9.8-7-2-7.7-6.4-2.3-17-3-23.6-4-49.6-.9-25.2-5.6-50-10.4-74.9l-5-27c-5.2-30.8-10.3-62-10.8-97l-2 3c-7.6 11.3-13.7 20.5-24.5 24a40.5 40.5 0 0 1-46.1-12.5 127.8 127.8 0 0 1-28.8-55.8c-8.4-34-9.9-67.1.9-100.6 5.2-16.1 23.7-44.7 42.2-42Zm34.6 127.5c4.4 3.2 8.4 6 12-5.4-1.1-42.2-14.7-69.2-35.8-70.3 11.2 14.6 22 28.8 23 48.5a32.3 32.3 0 0 1-10.7-8.8c-2-2.2-4-4.4-6.5-6l-3-2.4c-4.8-3.6-9.7-7.4-17.8-4.5 3.8 5.8 9 10 14.3 14 6 4.7 12 9.3 15.6 16.5-10.6 7.7-15.2 17.7-9.7 29.9 4.8 10.5 11.9 19.2 25.9 19.8-.6-6.3-4.7-10.9-8.8-15.4-5-5.4-9.7-10.6-7.5-18.6 3.2-1.5 6.2.7 9 2.7Z" fill="#000"/></g><g transform="translate(178 1057)"><path d="M1301.3 694.3H182L6 692s25.8-236.8 36.7-268.4C69 348 95.3 256.1 163.2 211.3c29.6-19.6 53.3-37 55.2-47.6 1-5.3 97.8-99.7 115.3-109.2C417.2 8.9 498.5 36 498.5 36l.9 18.8s1.9 22.7 6.9 29.4c22.7 31 101.3 50.4 154.1 54.7 66.3 5.3 138.5-24.7 140.7-46.7 1.7-17.3-21.4-48.5 11.8-61.6C838.5 20.6 914.5 27 941 37.3c34.1 13.2 99 53.5 130.3 93.4 12.2 15.6 14.7 59.5 56.3 72.4 62 19.1 109.6 108.7 135.3 220.5 13.1 57.2 38.4 270.7 38.4 270.7Z" fill="#fff"/><path d="m843.7 694.3-377.5-.3s-13.5-434.3-13.5-523.6c0-74 36.6-154.8 52-130.7 28.5 44.5 76.5 55 149 58.3 115 5.1 121.6-38 137.3-46.8 31.4-17.9 52.7 56.4 52.7 133v510.1Z" fill="#000"/><mask id="bodyVariant09-a" style="mask-type:luminance" maskUnits="userSpaceOnUse" x="453" y="259" width="392" height="433"><path d="m467 692-14-432.5h392V692H467Z" fill="#fff"/></mask><g mask="url(#bodyVariant09-a)"><g transform="translate(396 278)" style="mix-blend-mode:difference"><g fill="#fff"><path d="m302.9 264.7-.5.1h.5Z"/><path d="M410.3 250c-3-10-7.3-19.7-13-28.5a217.4 217.4 0 0 0-24.8-32.8 410 410 0 0 0-64.7-54.4 371.2 371.2 0 0 0-53.1-30A199.3 199.3 0 0 0 188 83.5c-12-.9-24.3-.1-36.2 2.3 11 1 22 2.8 32.7 5.4 14.8 4 33.2 11.6 49.3 18.1 20.5 9 40.7 18.8 59.8 30.5 29.6 19 53.5 38 76.8 62.8 12.4 14.3 20.5 25 28.4 40.5 3.7 8 6.4 16.6 8 25.3.8 6.1.7 5 .8 8.6v1.4l-.4 2.8v.1a44.4 44.4 0 0 1-19.2 27.3c-26.3 17-53 25.7-84.3 24.3-20.5-.8-41.7-6-58.8-10.7a385.2 385.2 0 0 1-61.8-22.6c-17-8-33.5-17.2-48.2-29-16.7-13.3-31.1-24.6-45-42.6-9.2-11.8-14.4-19.2-19.9-33l-.8-2.5c-1.6-5.4-1-2.5-1.7-8.3.2-3.5-.8-8 2.4-13.3a63 63 0 0 1 33.3-24c7.4-2.3 21.7-4.6 32.5-4.7 8-.1 16 1.2 23.9 2.4 15.7 2.8 28.7 6.9 44.7 13.5 14.7 6 29 12.8 42.9 20.4 29.1 16.6 63 42.2 70.4 67.4l.4 1.6v.2c.3 1.2.5 2.5.6 3.7v.3a114.5 114.5 0 0 0-.2 1.7l-.3 1.3c-1.5 4-7 7.6-15.3 10.1h-.3l-.3.2h.1a86 86 0 0 1-16.3 1.6c-9.5.1-18.9-1.6-28-3.8a126.6 126.6 0 0 1-38.1-15.5 189 189 0 0 1-26.9-18.4c-5.9-5-11.6-10.3-16.3-16.6-2-3-2.9-4.1-3.9-7.7a39.8 39.8 0 0 1 .2-.8l.2-.3v-.2l1.2-1.3.3-.4.3-.2c2.8-1.9 5.9-3.3 9-4.3 4-1.1 8.2-1.7 12.3-1.7a100.8 100.8 0 0 1 45.5 11.7 103 103 0 0 0-11.2-8.6c-12.8-8.2-29.1-15.6-44.6-14.2-12.4 1.7-19.9 6.7-20.1 20-.2 12.2 8.1 22.3 16.5 30.3 6.3 6 13 11.6 20.3 16.6a213.5 213.5 0 0 0 34 19c7.7 3 15.6 5.5 23.7 7.2 9.6 2.2 19.5 3.6 29.3 3 6.7-.3 13.5-1.1 19.7-3.8 25-9.7 16.6-42 3.8-58.7a158.2 158.2 0 0 0-36.9-35.3 284 284 0 0 0-51.1-29.7c-14-6.3-28-12.5-42.8-16.8a209.3 209.3 0 0 0-39.5-7.7c-7.8-.4-15.6 0-23.2 1.1A76.8 76.8 0 0 0 77.2 147a49.5 49.5 0 0 0-13 15.9 49.1 49.1 0 0 0-3.4 24c1.6 18.5 11.9 35 22.9 49.6a187.5 187.5 0 0 0 30.9 32.4c11.3 9.5 22.6 19.1 35 27 25.6 16 53.7 27.7 82.4 36.6 28.4 8.3 57.8 16 87.6 14.2a144 144 0 0 0 75.9-29 55.6 55.6 0 0 0 19-35.6 90 90 0 0 0-4.2-32Z"/><path fill-rule="evenodd" clip-rule="evenodd" d="M528.4 299.2c2 3 4 6.1 4.8 9.6 1 4.7 1.3 11-3 14.2-2.5 1.4-5.6 1.7-8.5 2l-1.4.1c-5.3.4-10.6.5-15.9.4h-.4c-2.8 5.2-5.5 10.5-8 16 1.3-5.1 3-10.6 5-16.2a213 213 0 0 1-8-.5 142.3 142.3 0 0 0 3.3 8.2l-.5-.7-.6-1c-1.4-2.1-2.8-4.3-4-6.6a126.6 126.6 0 0 1-26-5c-5-1.5-10.6-3.3-12.2-8.7-1.3-5-.3-11 4.2-14a142 142 0 0 1 18.1-12.4c-.7-3-1.4-6.3-1.8-9.5-.7-7.3-1.7-22.4 9-22.2 4.4 1 7.9 4 11.2 6.8l1.6 1.3a150.9 150.9 0 0 1 8.8 8.5c3.8-1.7 7.7-3 11.6-4.2 3.1-.8 6.4-1.4 9.5-.4 3.8 2 4 7 3.5 10.8-.5 2.8-1.4 5.4-2.7 7.9l-3.5 7.1c2 2.6 3.8 5.3 5.6 8l.3.5Zm-8.8-20.8c-1.7.3-3.4.7-5 1.3l-.4.1-.5.2 3.6 4.2 2.4-5.8Zm-37.2-11.6 4 2c2.5 1.8 4.9 3.7 7 5.8a349 349 0 0 0-12.5 6.8 58.4 58.4 0 0 1-1-14.2l.8-.4h1.7Zm-3.3 30.2c-4.7 2.7-9.4 5.6-13.8 8.7 6 2 12.4 3.4 18.8 4.2a244.4 244.4 0 0 1-5-13Zm9 13.4-4.3-16v-.1l2.8-1.6c5.4-3 11-6 16.6-8.5a222 222 0 0 1 9.6 10.8l-6.6 16.5c-6 0-12.2-.4-18-1Zm29.3-9.7-5.8 10.8c4.3 0 8.6-.3 12.9-.8l-.9-1.4c-2-2.9-4-5.8-6.2-8.6Z"/><path d="M262.6 221.8c2 6.7 3.6 10.8-3.4 12.4-5.4 1.1-11 .5-16.4.4-.8 0-1.1 0-.2.3a45 45 0 0 0 9.6 3.6c12.6 3.2 17.6-6.8 10.4-16.7ZM412.8 353.9c-4.7 2.5-9.9 4.1-15 5.8a237 237 0 0 1-21.2 5.6 261 261 0 0 1-58.3 5c-22.6-1-45-4.8-66.8-11-18-5-45.7-11.8-72.3-22.3l-5.7-2.3a851 851 0 0 0 56.3 29.5 196.2 196.2 0 0 0 55.3 16.5c18.7 3.2 37.7 4.2 56.7 3 10.3-.6 20.8-1.6 30.9-4.3a134 134 0 0 0 39-17.4c8.7-6.3 15-15 21.4-23.6-6.6 5.7-12.6 11.2-20.3 15.5ZM391.5 147.3l-4.2-2.4 7.3 7a340.7 340.7 0 0 1 50.5 71.3c-8.6-31-23-61.4-53.6-76ZM18.6 152c5.3-8.4 19-25 29-31.4A100 100 0 0 1 75.5 106a95.2 95.2 0 0 1 21.2-2.5 69.2 69.2 0 0 0-23.6-2.9A78.2 78.2 0 0 0 44 111c-13.7 8-24 20.7-32 34.1a89.6 89.6 0 0 0-11 45c.8 19.6 8 38.5 18.3 55a300 300 0 0 0 38 44.2l15.1 14.5A518 518 0 0 1 27.1 242c-14.5-23.5-21.2-43.7-18.5-62.6a64 64 0 0 1 10-27.5Z"/><path fill-rule="evenodd" clip-rule="evenodd" d="M134.7 341.1c-1.8-3-3.7-6-5.8-8.9l-.6-.7-.5-.6 1.4-2.6c1.3-2.1 2.5-4.3 3.3-6.7.8-3.5.8-8.2-2.3-10.6a7 7 0 0 0-4.4 0 43.7 43.7 0 0 0-11.4 4.2A264.7 264.7 0 0 0 91.6 294c-1-.9-2.1-1.8-3.4-2.4-3.5-1.4-5 3.2-5.3 5.8a64.1 64.1 0 0 0 2.5 20.5c1 4.3 2.3 8.6 3.7 12.8l-4 2.8-.7.5-9.8 7c-3 2.3-6.4 4.9-7 8.9-.7 3.5-.5 8.3 2.9 10.4 3.6 1.2 7.5 1.5 11.4 1.8l2.4.2c5.3.4 10.6.4 16 .1 2.3 6.7 4.7 13.4 7.3 20 .2.9.7 1.7 1.3 2.4-.7-1.2-1-2.6-1.2-4l-.4-1.9-1.5-6.5-2.2-10.2c2 0 4.1-.2 6.2-.4-1.2 4.6-2.1 9.4-2.7 14.1 1.4-4.9 3.1-9.7 5.1-14.3a464.7 464.7 0 0 0 10.6-1.2l7.8-1c1.2-.2 2.4-.6 3.6-1a7 7 0 0 0 2.4-3c2-4.7.8-10-2-14.2Zm-44-32.9c4.8 4 9.3 8 13.6 12.4l-9.4 6c-1.7-6.7-3.2-13-4.2-18.4Zm2.5 34.4-8.4 5.7c3.5.2 7 .3 10.5.2l-2.1-6Zm7.3 5.8-2.3-9.2 4.7-3c3.1-2 6.8-4.2 10.5-6.2 1.6 1.8 3.4 3.7 5 5.7a230.1 230.1 0 0 0-4.3 11.6c-4.5.5-9 .9-13.6 1Zm19.8-3.5-1 1.9 7.2-1c-1-1.5-2.5-3.3-4-5.2l-.5 1-1.7 3.3ZM380.5 75.7c-1.2-2-3-3.5-5.2-4.4l-8-3.8c.3-14 .3-27.9-.3-41.8-.3-2-1.1-5.4-3.7-4.6a17.3 17.3 0 0 0-3.6 5 341 341 0 0 1-19.6 29.4 646.9 646.9 0 0 0-43.3-16.7c-1.8-.6-3.6-1.2-5.3-.4-4.3 3.3-3.8 10.2-1.7 14.6a64 64 0 0 0 9.8 12.5l.2.2c5.4 5.8 11.2 11.1 17 16.4l1.6 1.4 1 1a5872 5872 0 0 1-15 9.4 27 27 0 0 0-5.7 4 6 6 0 0 0 0 6.6 3 3 0 0 0 2.6.8c1.5 0 3-.3 4.6-.5 5.1-.9 10.2-2 15.3-3.1l5-1.2 9-2a3942 3942 0 0 0 12.6 11.1c4.2 3.7 10.2 9 14.2 5.6 3.4-3.3 3.8-8.2 4.1-12.7l.2-2.3.5-8.6 6.2-1.2c.5 0 1-.2 1.4-.3 1.4-.3 2.8-.6 4-1.3 4-2.9 4-9 2-13Zm-20-12.7v1.4l-9.3-4.1 5.6-6a57 57 0 0 0-8.4 4.8 242.4 242.4 0 0 1-4-1.7l-1.4-.6c6.5-6.2 12.5-12.8 18-19.8-.3 7.4-.4 16.6-.5 26Zm-55-7A1166.6 1166.6 0 0 0 337 85a225.8 225.8 0 0 1 23.2-6v-.5c-5.7-2.6-11.5-5-17.3-7.5l-3.5-1.5a55 55 0 0 1-5.6 3 94 94 0 0 1 3.5-3.9l-5-2.1a54 54 0 0 0-.7.6l.4-.5.1-.2c-8.8-3.6-17.6-7.2-26.6-10.5Zm5 38.4c3.3-3 6.5-6.2 9.6-9.4l4.5 4.1a556 556 0 0 0-14 5.3Zm38.5 1 1.8 1.7 1 .9c1.5 1.2 3.7 3.2 6.7 4.4h.5c.3-2.6.6-5.7.7-9.3L349 95.4Z"/></g></g></g><path d="M1295 694c-6.2-21.3-11.5-73.3-14.9-102-2.4-20.7-19.6-166.5-38.5-217.4-11.6-31.1-22.4-63-39.5-92.1-11.7-20-29.3-34.3-46-48.9a513 513 0 0 0-67-48.2c-30.9-19.2-63.4-23-97.6-11.7a32 32 0 0 0-21.9 24.3c-13.4 53.3-9.1 107.6-9.8 161.6-.8 69.8 3.1 139.5 5.2 209.2 1.8 57.2 0 66.7-.6 125.2h-14.5c-.9-32.2-.4-15.3-.6-47.5-.2-47.6-.8-95.1-1.6-142.7-.6-37.8-.3-75.7-2.8-113.5-2.6-39.6-2.7-79.1.7-118.6 2.5-28.2.1-57 11.3-84.3 9.4-23 28.3-31.8 49.9-33.5 22.4-1.7 45.7-4.8 69.8 9.3-4.8-16.6-15-24.7-22.6-34-28-34.2-65.5-55.5-103.6-76.8-39.3-22-80.7-19-122.6-17.4-6.5.3-12 3.8-17.8 6.7-7.5 4-15.3 7.3-26.6 4.8 9.5-13 22.1-17.3 35.1-21.1 37.1-10.8 73-5.2 95.7-1.8C943 28 1042.7 76 1089.7 151.5c22.3 35.9 85.8 36.4 143.6 157.6a528 528 0 0 1 34.7 100.7c10.9 44 39.5 252.6 39.5 284.2H1295ZM15.3 694c2-6.9 2.7-9.9 3.6-15.7 4.6-28.4 5.5-57.6 8.9-86.3 2.4-20.6 3.3-41.4 6-62 7.2-52.7 15.6-105 32.5-155.4 10.7-31.7 22.4-63 39.5-92.1 11.7-20 29.3-34.3 46-48.9 20.7-18 43.5-33.7 67-48.2 30.9-19.2 63.4-23 97.6-11.7a32 32 0 0 1 21.9 24.3c13.4 53.3 9.1 107.6 9.8 161.6.8 69.8-3.1 139.5-5.2 209.2-1.8 57.2.5 125 .5 125l14.6.2c.9-32.2.4-15.3.6-47.5.2-47.6.8-95.1 1.6-142.7.6-37.8.3-75.7 2.8-113.5 2.6-39.6 2.7-79.1-.7-118.6-2.5-28.2-.1-57-11.3-84.3-9.4-23-28.3-31.8-50-33.5-22.3-1.7-45.6-4.8-69.7 9.3 4.8-16.6 15-24.7 22.6-34 28-34.2 65.5-55.5 103.5-76.8 39.4-22 80.8-19 122.7-17.4 6.5.3 12 3.8 17.8 6.7 7.5 4 2.3 11.5 6.4.7 5.8-15-2-13.2-15-17-37-10.8-74-4-111 .5-7.4 1-14.8 4.4-21.5 8-51.4 27.8-116 77.2-138.6 117.6-12 21.6-30.7 32.8-47.5 47.7C111 252.3 95.3 263.8 74.6 309a573.6 573.6 0 0 0-34.7 100.7c-11 44-19.1 88.6-22.8 134.2-2.7 32.4-7.4 64.8-10.3 97.4-2 22.8-3.5 39.7-3.5 52.6h12Z" fill="#000"/><path d="M1131.8 694c2-23.7-8-84.7-12.5-115.7-3.3-22.6-3-46-11.4-67.7-2.1-5.4-1.5-12.4 5.3-13.5 6.4-1 9.2 3.5 10.7 10.8 7.8 38.3 11.3 77.2 16 116 3.5 30 7.8 60 8.5 70l-16.6.1ZM193.3 694c1.4-23.6 8-84.7 12.6-115.7 3.3-22.6 3-46 11.4-67.7 2.1-5.4 1.5-12.4-5.3-13.5-6.4-1-9.3 3.5-10.7 10.8-7.8 38.3-11.3 77.2-16 116-3.6 30-5.7 70.1-5.7 70.1h13.7Z" fill="#000"/><path d="M467.4 694.3S452.7 266.8 452.7 179c0-72.8 36.6-163 52-139.2 28.5 43.8 77.2 58.4 149.7 61.5 115 5 120.9-41.3 136.6-50 31.4-17.6 52.7 66 52.7 141.4V694" stroke="#000" stroke-width="15"/></g><g transform="translate(266 207)"><path d="M231.7 284.6c33.2-22.3 65-45 88.9-76.5 14.5-19.2 26.5-40.7 42.8-58.3C396 114 432.8 83 477.2 61.6c40-19.2 82-25.4 125.4-29.8 32.6-3.2 65.4-2 97.7 3.7 32.9 5.6 56.5 19 58.8 60.4.5 9.9 4.2 14 14 13.2 29-2.5 55.5 7.2 81 19.2 27 12.7 45.7 40.7 24.8 78.7a272.8 272.8 0 0 1 53.3 30.6c25.8 18.7 38.6 57 25.4 84.7-9.6 20-29.7 26.8-50 31.9-18 4.5-36.2 2.5-54.9-1-5.6 13.1-9 26.9-23.3 33.7a97 97 0 0 1-58 9.3c-26.4-4-50.6-15.2-69.3-32.6-22-20.7-45.6-20.9-72-16.5-15.6 2.6-31.5.7-46.6-3-24.3-5.8-48-13.8-72-21.1-17-5.3-30 .3-37.5 16.3-11.7 24.8-11.6 52.2-15.8 78.3a148.6 148.6 0 0 1-33.7 76.6c-16.3 18.8-20.6 41.2-23.6 64.5-.9 6.6.5 14.4-7.5 17.4-8.3 3.1-12.1-4.1-16.8-8.8-11.5-11.7-14.7-27.4-20-42.1a140.3 140.3 0 0 0-24-43.1c-12.7-15.3-25.5-14-39.4-.4a51.6 51.6 0 0 0-15.7 35.8c0 4-2.3 7.6-5.8 9.5-11.5-17.7-24.5-34.5-34-53.2-10.3-20.4-23.5-39-33.1-60-20.5-44.2-13.5-97.5 27-129.2Z" fill="#000"/></g><g transform="translate(791 871)"><path d="M203 92.2c5.7-4 7-10.6 8.7-16.5 2-7-1.7-13-8.8-12-8.2 1-16.6 1.4-24.6 5a65 65 0 0 1-54 1.2c-8.1-3.7-16.7-6-25.5-7.1C86 61.3 80.5 67 81 79.5c.4 10.9 10.2 19.6 23.5 20.1 32 1.3 63.1-12.1 95.4-6 .4.1.8-.3 3-1.4Z" fill="#fff"/><path fill-rule="evenodd" clip-rule="evenodd" d="M123.6 54.3c-10-5.3-20.7-10.8-34-7.2C68.1 55.6 62.4 69.3 68.5 90c6.2 21 36.6 27.8 55.7 24.8 5.5-.8 11-2.3 16.6-3.8 13.8-3.6 27.6-7.2 42-1.8 13.1 5 23.4-.7 33-8 11-8.3 15.3-33 8.6-44.5-4.8-8.1-21.5-13-32.4-9a125 125 0 0 0-20.8 9.5c-14.3 8.6-27.5 7.1-42.1 0l-5.5-2.8ZM211 77.8c-1.5 5.4-3 11-8.1 14.4a62.1 62.1 0 0 0-3 1.4c-18.4-3.5-36.5-.6-54.6 2.3a208 208 0 0 1-40.8 3.7c-13.3-.5-23-9.2-23.5-20C80.5 67 86 61.2 98.8 62.7c8.8 1 17.4 3.4 25.5 7a65 65 0 0 0 54-1.1c6.6-3 13.4-3.7 20.2-4.5l4.4-.5c7.1-1 10.8 5 8.8 12l-.6 2.1Z" fill="#000"/></g><g transform="translate(653 805)"/><g transform="translate(901 668)"><path d="m72.7 176.1.8 3.5c7.2 25.1-.3 33.5-27 30.2-5-.7-9.5-2.3-9.9-8-.5-5.9 4.6-6.1 8.8-7 4.6-.8 9-2 15.3-3.4a154 154 0 0 1-8.4-36.6c-2-15.8.7-30.4 5.8-45 2-5.7 5.6-10.6 12-7.9 5.6 2.4 3.2 8.1 1.4 12.4-8.6 20.4-7 40.7 1.2 61.8Z" fill="#000"/></g><g transform="translate(610 680)"><path d="M419.6 111c-4.2-9.5-9.9-15.2-19.8-15.7-6-.3-7-5.1-8.9-9.8 2-1.5 3.5-3.7 5.3-3.8 21.1-1.7 42.4-1.8 63.5-.1 6 .4 9.3 8 3.2 10.4-10 4-12.5 13.2-18.5 19.8-8.2 9-15.2 9.1-24.8-.8ZM228.6 81.4c12.2.7 23.1 1 34 2 3.6.3 8 1.8 8 6.7 0 5.6-4.6 5.2-8.3 5.1-6.3 0-9.7 2.7-12.5 8.6-3.4 7.4-6.9 15.3-18 14.8-10.5-.5-15.1-7.2-18.1-15.2-2.2-5.7-5-8.4-11-8.2-3.4.1-7.1-.2-7.5-4.9-.4-5 3-6 7-7.2a67.9 67.9 0 0 1 26.4-1.7Z" fill="#000"/></g><g transform="translate(610 680)"/><g transform="translate(774 657)"><path d="M15 39C23.8 24.6 37 20.4 51.9 19c23.2-2.3 44 8.5 65.9 12.8 8 1.5 6.8 7.5 1.4 10.7-9.4 5.7-19.5 11-31.2 7-22.5-7.6-45.1-12-68.6-4.1-6.2 2-5-2-4.2-6.3ZM255 29c15-2.6 28.7-5.3 42.2 1.5 10.8 5.5 15 14 12.9 25.5-5 3.1-7.5-.4-10.6-2.5-11.6-7.9-23.9-10-37.3-4.6-9.3 3.7-19.2 2.4-29 2.4-4.7 0-8.4-1.8-8.7-7-.4-5.5.9-10.8 6.9-12 7.3-1.7 15-2.2 23.7-3.3Z" fill="#000"/></g><g transform="translate(0 559)"><path d="M1344.8 1191.5c0-22.8-13.6-101.4-6.4-126.7 7.3-25.5 39.4-68.3 35.4-142-2.6-48.4-15.4-82.8-48.3-106-19.6-14-50-36-72.2-26.1l-68.9 30.3-26.6 24.5s46.2 9.8 66 0c33.1-16.4 74.2 7.5 74.2 7.5s-102.8.8-127.4 29.8c-12.3 14.6-16 39-10.8 49.5 5.2 10.4 10.3 31.4 15.9 37 17.1 17.2 41 6.2 26.6 29.3-9.4 15 37.5 17.1 14 45.4-13.7 16.6 12.4 33 16.2 44.2 8.4 24.8-17.8 103.3-17.8 103.3h130.1Z" fill="#fff"/><path d="M1335 813.4c1.7-25.4 21.1-264.5 3.4-266.6-17.7-2-177.3 9.5-183.9 7.8-6.5-1.7-10 206.2-8.3 242 1.6 35.8 2.2 83.8 2.2 83.8l17.3 6.2s58.1-23 74.3-23c16.2 0 53.7-8.9 53.7-8.9l41.3-41.3Z" fill="#fff"/><path fill-rule="evenodd" clip-rule="evenodd" d="M1334.7 1194c2.6-18.7.7-37.5-1.2-56.1-.8-8-1.6-16-2-24l-.2-2.1v-1.4c-1.6-27-3.1-52.9 13.7-77.3 8.7-12.7 10.7-28.2 12.7-43.4a317 317 0 0 1 2-14.3c7.8-43.3 6.5-86.3-13.6-127.2-4.9-10-13.3-15.4-21.7-20.8-2.9-1.9-5.7-3.7-8.4-5.7-5.2-3.9-11-7-16.8-10.1-5-2.7-10.1-5.5-14.8-8.7-10.2-7-20-7-31-2.6-5.5 2.3-11.1 4.4-16.7 6.6-18.5 7-37 14.1-53.3 26.3l-2.5 1.7c-2.6 1.7-5.2 3.4-6.6 6.6 17.5 4 34-.8 50-5.5 29.9-8.6 57-6 81.4 14.4 4 3.4 6 6.8 4.1 11.6a831 831 0 0 0-111.5 15.9c-13.3 3-33.5 25-34.2 38.6-.5 9.6 7 9 12.4 6.6 29-12.6 59.8-14.2 90.6-15.9l13-.7c6-.4 11.8 1 17.6 2.5l4.9 1.2c4 .8 8.5 2.2 8.9 8.5-5 4.3-11.1 3.7-17 3l-5.7-.4a328 328 0 0 0-45.8 3.9c-11.7 1.5-23.4 3-35.2 3.6-8 .4-16.3 3.8-24 7.1-5.8 2.5-11.3 6.7-9.4 14.7 2.7 11 9.5 18.4 21 19.3 12.6 1 25.7 2 38.2.2a318 318 0 0 1 64.8-.5l18 1h2c3.2-.2 6.8-.3 7 4.4.2 6-5.5 6.2-9.3 6.3l-4.8.2a917 917 0 0 1-55.1 1c-18.1-.4-34.2 3-48.9 18.7 8.5 2.7 16 7 23.4 11.3 13.6 8 26.7 15.6 44.2 12.1.6 0 1.2-.2 1.9-.4 5.7-1.2 14.4-3.2 15.1 5.2.6 7.4-6.8 7.7-12.6 7.8a50 50 0 0 0-3.5.2c-16 1.6-32.1 1.5-46.7-7-11.1 18-9.3 32.7 5 47.5 8.3 8.7 9.8 20 7.7 31-5.1 27.4-11.2 54.5-17.4 82.5l-.4 1.8c-4.8.7-9.8 1-14.8.9 1.7-9.1 3.6-18.2 5.5-27.2 4.4-21.6 8.8-43.2 10.7-65.2.5-6.3-1.7-11-5.7-16.1-12.6-16-17.5-33.9-8-53.4 3.3-6.8 3.5-11.7-4.7-15.3-17.3-7.6-18.7-13.5-6.8-31.5-15.5-1.2-29.3-8.7-33.1-21.7-1.8-6.2-4.4-12.2-7-18.2-5.2-11.7-10.3-23.4-9.5-36.8 0-.7.2-1.6.4-2.4.3-1.7.6-3.3 0-3.8-12.3-9.8-11.7-23-11.2-35.7.2-3.6.4-7.2.2-10.6-1.8-43.3-1.4-86.6.2-129.9.7-20 .8-40.2 1-60.3 0-20.2.2-40.3 1-60.4V604c.5-14.8 1-29.6 1-44.3-.2-9.6 4.5-13.6 12.8-13.7 25-.2 49.7-1.5 74.6-2.8 33.4-1.8 66.7-3.5 100.2-2.7 14.7.4 16.3 3.5 17 18.4 1.3 23 1.3 45.7.7 68.6l-.3 9.4c-.5 20.2-1.1 40.4-2 60.6-1.9 40.3-1.7 80.7-1.3 121 .1 7.6 4.5 13 9 18.6 2.6 3.1 5.2 6.3 7 9.9 16.3 32.8 19.7 67.4 15.9 102.8l-1 10c-2.2 21-4.4 42-10 62.8a90 90 0 0 1-10.6 22.6l-4.5 8c-4 7.4-6.1 15.7-6.2 24.2-.7 25.2 1.5 50.3 3.6 75.4l1.2 14.7c.6 6.2.3 12.5 0 19.4l-.1 6c-4.6 1.2-9 1.2-14.5 1.2Zm-15.8-399.6c3.3-3 5.7-6.7 5.8-11 .2-12.4 1.8-24.6 3.4-36.9a333 333 0 0 0 3.4-37.3 4407 4407 0 0 1 2.3-80.5l1.4-43.2v-.8c.7-21.5.8-26.6-28-27.2-20.7-.3-41.4.5-62 1.4-22.2 1-44.3 2-66.5 1.3-1.4 0-3 .3-4.4.7l-3 .6c-9.8 1.2-14 6.7-14 16.4l.2 12.9c.3 14.8.5 29.6-.4 44.4-2.7 42.4-3.8 84.8-4 127.2a158 158 0 0 0 9 51.2c2.2 6.5 7.3 11.2 13.5 6 13.8-11.6 30-17.8 46.2-24 5.5-2 11-4.2 16.3-6.5 19-8 38.3-11.6 56.4 1.7a24 24 0 0 0 24.4 3.6Zm-91.8 56.3c6.2-1.5 12.4-3 18.7-4.2 2.8.3 5.5-.1 8-.5 4.7-.6 9-1.2 13.3 2.2-6.5 5.4-13.9 5.7-21.2 6-3.4.1-6.8.3-10 1l-17.6 3a196 196 0 0 0-43 10.4c-4.3 1.8-8.6 3.1-13.3.3-4.6-2.8-4.7-6.7-3.6-11 1-4 3.6-5.5 7.7-4.1 21 6.8 41 1.8 61-3Z" fill="#000"/><path d="M1382.3 427.6c-10.3 8-14.3 20-22.6 28.4-3.6 3.7-7.7 8.2-13.2 5-5.9-3.6-4.7-10.5-2-15a72.6 72.6 0 0 1 23.6-25.6c6.2-3.8 13.6-4.8 14.2 7.2ZM1262.8 411.4c-1.2-6.4-3.7-13 3.7-15 6.8-1.7 12 3.7 12.9 9.7 1.5 11.9 5.5 23 8.7 34.4 1 3.3 2.3 7.8-3 9.6-4.9 1.6-7.8-2-9.2-5-4.7-10.7-8.6-21.8-13-33.7ZM1448.7 597.7c3.8 6.5 13.7 12 6.3 18.7-6.8 6.1-12.5-3-18-6.8-5-3.6-9.5-8.3-14.5-12-5.6-4-6.9-9-3-14 3.8-4.7 9.2-3.8 13.5 0 5.2 4.3 10 8.9 15.7 14ZM1432 547.3c-6.6-.8-12-3.4-11-10 .8-6 6.5-7.1 12-7.1 11.4 0 23-.4 31 10.5-8.3 14.6-20.5 6.9-32 6.6ZM1300.9 623.8c-11-6.1-15.7-18.8-10.8-28 2.8-5.6 9-8.5 15.1-7.2 6.4 1.5 12.4 5.4 13.7 13.4 1.8 11-4.9 19.7-18 21.8Z" fill="#000"/></g></g></g></svg>