<svg xmlns:xlink="http://www.w3.org/1999/xlink" xmlns="http://www.w3.org/2000/svg" viewBox="0 0 1744 1744" fill="none" shape-rendering="auto" width="1744"  height="1744" ><desc>"Notionists" by "Zoish", licensed under "CC0 1.0". / Remix of the original. - Created with dicebear.com</desc><metadata xmlns:dc="http://purl.org/dc/elements/1.1/" xmlns:cc="http://creativecommons.org/ns#" xmlns:rdf="http://www.w3.org/1999/02/22-rdf-syntax-ns#"><rdf:RDF><cc:Work><dc:title>Notionists</dc:title><dc:creator><cc:Agent rdf:about="https://bio.link/heyzoish"><dc:title>Zoish</dc:title></cc:Agent></dc:creator><dc:source>https://heyzoish.gumroad.com/l/notionists</dc:source><cc:license rdf:resource="https://creativecommons.org/publicdomain/zero/1.0/"/></cc:Work></rdf:RDF></metadata><mask id="viewboxMask"><rect width="1744" height="1744" rx="0" ry="0" x="0" y="0" fill="#fff"/></mask><g mask="url(#viewboxMask)"><g transform="translate(-436 -436) scale(1.5)"><g transform="translate(531 487)"><path d="M554 727.7c-99.2 297-363.8 388.6-503.7 19.8-19.3-50.7 31-69.5 66.2-91.9 24.1-15.3 36.8-28.5 35.3-42.2-7-64.4-36.9-243.8-36.9-243.8l-3-5.8s.7-1.6-2.2 1.2c-3 3-9.9 34.2-37 34.2-24.5 0-49.2-10.9-61-86.3C7.2 285.6 9.6 214 40 201c12.5-5.3 24-7.2 35.2-.8 11.3 6.4-13-22 112-126C268.4 6.4 396.7-3.5 448.5 8 500.3 19.5 552 44.8 574.9 98.5c27.8 65-25.9 114.3-14 262.5-2.2 53.6.8 171.2-146.6 210.6-28 7.5-19.3 48.4 22.7 58.4 67 21 117 72.3 117 97.9" fill="#fff"/><path fill-rule="evenodd" clip-rule="evenodd" d="m554 266.2.1-1.4c4.1-36.4 8.2-71.7 27.1-103.4 6.5 4.4 5.7 10 3.7 15.2-19.9 51.2-18 104.4-16.2 157.6l.4 14c2.1 66.4-14.5 126.8-58.7 177.5-15.4 17.6-35.8 29.8-56.5 40.3-21.4 11-25.9 20.1-19.2 43.6l.8 2.6c1.4 3.9 2.8 7.9-1 11.8-4.5 4.6-9.5 3.3-14.8 1.8l-.6-.1a406.4 406.4 0 0 1-137-68.3c-6-4.4-10.8-10.3-15.5-16.1l-.3-.4c-2.5-3-3-7.8.5-10.4 3.3-2.5 5.8-.5 8.7 1.8l1 .9a145.5 145.5 0 0 0 76.3 31.7c13.4 1.4 26.6.9 40 .4 7.4-.3 14.8-.6 22.3-.5 10.2 0 18.7-4.7 26.7-9.2l2.8-1.6c27.8-15.5 54.3-32.8 72.2-60.7 16.1-25 25.9-52.2 31.6-80.9 7.2-36.1 6.6-72.7 6-109.8-.3-12-.5-24.2-.5-36.4ZM50.6 190.8c21.9-1.7 34 11.2 44.3 26.3a140.4 140.4 0 0 1 22.4 61.5c.5 3.7 1 7.6-1.2 11.3-4.5.6-4.9-3-5-5.6-.5-20.7-9.7-38.7-18.9-56.1-6.6-12.5-16.2-24.6-31.4-27.6-17.2-3.5-33 12-40.8 32.2-14.5 37.6-12 74.6 1.4 111 5.8 15.9 13.1 32.1 27.8 43.2 14.8 11.3 32.7 9.3 43.6-5.7l2-2.5c2-2.6 4-5.1 5-8 2.1-5.8 5.4-11.2 11.3-10.4 6.8 1 8 8.3 8.7 14a3661 3661 0 0 0 22 156.7l5.9 38.8c2.6 17.1 5.6 41.7 3.6 52.1a28 28 0 0 0-.3 2.2c-.4 2.8-.6 5-4.2 5.5-4.9.8-7-2-7.7-6.4-2.3-17-3-23.6-4-49.6-.9-25.2-5.6-50-10.4-74.9l-5-27c-5.2-30.8-10.3-62-10.8-97l-2 3c-7.6 11.3-13.7 20.5-24.5 24a40.5 40.5 0 0 1-46.1-12.5 127.8 127.8 0 0 1-28.8-55.8c-8.4-34-9.9-67.1.9-100.6 5.2-16.1 23.7-44.7 42.2-42Zm34.6 127.5c4.4 3.2 8.4 6 12-5.4-1.1-42.2-14.7-69.2-35.8-70.3 11.2 14.6 22 28.8 23 48.5a32.3 32.3 0 0 1-10.7-8.8c-2-2.2-4-4.4-6.5-6l-3-2.4c-4.8-3.6-9.7-7.4-17.8-4.5 3.8 5.8 9 10 14.3 14 6 4.7 12 9.3 15.6 16.5-10.6 7.7-15.2 17.7-9.7 29.9 4.8 10.5 11.9 19.2 25.9 19.8-.6-6.3-4.7-10.9-8.8-15.4-5-5.4-9.7-10.6-7.5-18.6 3.2-1.5 6.2.7 9 2.7Z" fill="#000"/></g><g transform="translate(178 1057)"><path d="M1301.3 694.3S1276 480.8 1263 423.6c-25.7-111.8-73.3-201.4-135.3-220.5-29.6-9.2-39.4-34-47-53.2-3-7.8-5.8-14.7-9.3-19.2C1040 90.7 975 50.5 941 37.3 914.5 27 838.5 20.6 813 30.7c-11.5 4.5-16.2 11-17.6 18.5-1.5.5-3 1.1-4.4 2-3.3 1.8-6 5-9.5 9C768 75.7 745 102.1 653.7 98c-72.5-3.2-120.5-13.8-149-58.3-2.3-3.6-5-4.8-8-4.2a223.7 223.7 0 0 0-163 19C316.2 64 219.4 158.4 218.4 163.7c-2 10.6-25.6 28-55.2 47.6C100.9 252.4 73.6 333 49.3 404.4l-6.6 19.2C31.8 455.2 6.1 692 6.1 692l176 2.3h1119.2Z" fill="#fff"/><mask id="bodyVariant07-a" style="mask-type:luminance" maskUnits="userSpaceOnUse" x="453" y="259" width="392" height="433"><path d="m467 692-14-432.5h392V692H467Z" fill="#fff"/></mask><g mask="url(#bodyVariant07-a)"><g transform="translate(396 278)" style="mix-blend-mode:difference"/></g><path d="M467.4 694.3S452.7 266.8 452.7 179c0-72.8 36.6-163 52-139.2 28.5 43.8 77.2 58.4 149.7 61.5 115 5 120.9-41.3 136.6-50 31.4-17.6 52.7 66 52.7 141.4V694" stroke="#000" stroke-width="15"/><path d="M1295 694c-6.2-21.3-11.5-73.3-14.9-102-2.4-20.7-19.6-166.5-38.5-217.4-11.6-31.1-22.4-63-39.5-92.1-11.7-20-29.3-34.3-46-48.9a513 513 0 0 0-67-48.2c-30.9-19.2-63.4-23-97.6-11.7a32 32 0 0 0-21.9 24.3c-13.4 53.3-9.1 107.6-9.8 161.6-.8 69.8 3.1 139.5 5.2 209.2 1.8 57.2 0 66.7-.6 125.2h-14.5c-.9-32.2-.4-15.3-.6-47.5-.2-47.6-.8-95.1-1.6-142.7-.6-37.8-.3-75.7-2.8-113.5-2.6-39.6-2.7-79.1.7-118.6 2.5-28.2.1-57 11.3-84.3 9.4-23 28.3-31.8 49.9-33.5 22.4-1.7 45.7-4.8 69.8 9.3-4.8-16.6-15-24.7-22.6-34-28-34.2-65.5-55.5-103.6-76.8-39.3-22-80.7-19-122.6-17.4-6.5.3-12 3.8-17.8 6.7-7.5 4-15.3 7.3-26.6 4.8 9.5-13 22.1-17.3 35.1-21.1 37.1-10.8 73-5.2 95.7-1.8C943 28 1042.7 76 1089.7 151.5c22.3 35.9 85.8 36.4 143.6 157.6a528 528 0 0 1 34.7 100.7c10.9 44 39.5 252.6 39.5 284.2H1295ZM15.3 694c2-6.9 2.7-9.9 3.6-15.7 4.6-28.4 5.5-57.6 8.9-86.3 2.4-20.7 3.3-41.4 6-62 7.2-52.7 15.6-105 32.5-155.4 10.7-31.7 22.4-63 39.5-92.1 11.7-20 29.3-34.3 46-48.9 20.7-18 43.5-33.7 67-48.2 30.9-19.2 63.4-23 97.6-11.7a32 32 0 0 1 21.9 24.3c13.4 53.3 9.1 107.6 9.8 161.6.8 69.8-3.1 139.5-5.2 209.2-1.8 57.2.5 125 .5 125l14.6.2c.9-32.2.4-15.3.6-47.5.2-47.6.8-95.1 1.6-142.7.6-37.8.3-75.7 2.8-113.5 2.6-39.6 2.7-79.1-.7-118.6-2.5-28.2-.1-57-11.3-84.3-9.4-23-28.3-31.8-50-33.5-22.3-1.7-45.6-4.8-69.7 9.3 4.8-16.6 15-24.7 22.6-34 28-34.2 65.5-55.5 103.5-76.8 39.4-22 80.8-19 122.7-17.4 6.5.3 12 3.8 17.8 6.7 7.5 4 2.3 11.5 6.4.7 5.8-15-2-13.2-15-17-37-10.8-74-4-111 .5-7.4 1-14.8 4.4-21.5 8-51.4 27.8-116 77.2-138.6 117.6-12 21.6-30.7 32.8-47.5 47.7C111 252.3 95.3 263.8 74.6 309a573.6 573.6 0 0 0-34.7 100.7c-11 44-19.1 88.6-22.8 134.2-2.7 32.4-7.4 64.8-10.3 97.4-2 22.8-3.5 39.7-3.5 52.6h12Z" fill="#000"/><path d="M1131.8 694c2-23.7-8-84.7-12.5-115.7-3.3-22.6-3-46-11.4-67.7-2.1-5.4-1.5-12.4 5.3-13.5 6.4-1 9.2 3.5 10.7 10.8 7.8 38.3 11.3 77.2 16 116 3.5 30 7.8 60 8.5 70l-16.6.1ZM193.3 694c1.4-23.6 8-84.7 12.6-115.7 3.3-22.6 3-46 11.4-67.7 2.1-5.4 1.5-12.4-5.3-13.5-6.4-1-9.3 3.5-10.7 10.8-7.8 38.3-11.3 77.2-16 116-3.6 30-5.7 70.1-5.7 70.1h13.7Z" fill="#000"/></g><g transform="translate(266 207)"><path d="M319.4 447.9c-5.2-33.5 7.2-101.6 19.9-129C352 291.7 387 229.5 411 213.5c24-15.9 77.8-40 96-50.3 18.2-10.3 60.4-19.7 89-18.5a312 312 0 0 1 95.3 19.8c30.3 12 73.4 32.5 95.2 57.3 21.9 24.7 25.4 22.7 43.8 52.8 18.4 30.1 21.2 48.8 28.4 59.8 7.3 11 31.8 25.5 51.4 50.6 19.7 25 28.5 28.9 34.7 51.8 6.3 23 7.3 29 2.5 37.3-4.7 8.2-14.9 21.3-27.1 21.3-12.3 0-28 2-46-11.7-18-13.8-34.5-17.2-47.7-33.9-13.2-16.7-26.7-14.6-42.2-30-15.5-15.6-27.7-12-56.4-21.4-28.8-9.4-36 9.6-63.2-3.4-27.1-13-32.6-1.6-51.8 10.5-19.2 12.1-38 24.7-58.5 31.8-20.5 7-67.3 20.9-87 18.4-19.6-2.5-44.3-13-65.6 1.2-21.4 14.2-28.9 18.8-37.2 21.8-8.4 2.9-7.6 2.2-15.5-5-7.9-7-6.1-7.5-13.7-10-7.5-2.6-16-15.7-16-15.7Z" fill="#fff"/><path fill-rule="evenodd" clip-rule="evenodd" d="m353.3 506.3-2.7-7.4a64 64 0 0 0-5.7-13.4c-6.9-11-2.4-17 7.1-22.5 5.8-3.4 11.3-7.3 16.8-11.2l3.3-2.3c19.6-13.8 39.7-17 62.2-6 21.3 10.6 43.7 7.2 66.2 2.4 47.7-10.2 90.2-31.4 131.2-57.1a296.8 296.8 0 0 1 86.3-37c32.8-8 66.5-6.5 99.5 4 23.3 7.5 46.2 15.5 65.1 31 23.2 19.2 45.4 39.7 54.9 69.8l.5 1.6c1.5 4.4 3.4 9.8-2.8 11.5-4.5 1.2-5.7-2.7-6.9-6.4-.3-1.2-.7-2.3-1.1-3.2a165.9 165.9 0 0 0-77-79 195.5 195.5 0 0 0-123.9-18.7c-12.5 2-24 7-36.1 12.3-7.5 3.2-15 6.5-23.3 9.2 6.3 3.4 11.5 3.9 16.5 4.4.6 0 1.3 0 2 .2 47.8 5 93.8 15.8 133.5 45a215 215 0 0 1 17.8 15.1c5.1 4.7 10.3 9.5 15.8 13.7l1.5 1.2c15 11.5 30 23 49.4 26.7 28.4 5.3 47.2-13.8 39.8-41.6-8.3-30.9-29.7-53.1-52-74a258.5 258.5 0 0 0-89.5-54.4c-41.9-15.3-85-17.5-128.3-13.6-43.2 4-86 12.4-126.6 28.2-20.5 8-40.4 17.7-60.2 27.4a4282 4282 0 0 1-8 4c-39.8 19.3-74.3 46.5-108.8 73.6l-16.3 12.8c-2.1 1.7-3.7 4-5.3 6.4-2.9 4.3-5.8 8.8-12.6 9.4-1.7-11 5.8-17.7 12-23.2l1.5-1.3c23.1-20.5 46.5-41 72.8-57.5 7-4.4 9-10 9.6-18a371 371 0 0 1 37.9-140.2l7-14.5c6.8-14.7 13.7-29.4 23.4-42.9-58.2 21.7-101.9 60-134 113.2-32.3 53.4-40.2 111.8-37.5 174.8-8.8-5-9.2-10.7-9.6-16.6a285 285 0 0 1 19.6-130 270 270 0 0 1 77-106c26.4-21.7 55-39.5 88-49.4 6.3-1.9 8.4-6.7 10.6-12l.5-1c6-14 9.5-14.8 20.5-4.9 5.5 5 10.7 6.4 18.5 5 32.1-6.1 64.1-4.7 96.3 1.6 71 14.1 127.8 51.1 172 107.4a223.4 223.4 0 0 1 39.2 75.2c2.7 9 8.4 17 16.2 22.3 29.9 21.3 54 47.6 70.1 80.9 7.3 15 10 31.5 1.9 45.2a42.4 42.4 0 0 1-47.2 22c-18-3.2-32.8-10.7-46.6-21.6l-14.7-12c-20.3-16.6-40.6-33.3-65.5-43.6a299.6 299.6 0 0 0-125.6-23c-13.6.5-25.1 7.9-36.4 15.1l-8.2 5.2c-40.5 24.2-85.4 34.8-131.1 42.8-9.7 1.7-19.7.2-29.1-2.6-7.5-2.3-11.1.7-14 7-10.2 22-18 44.7-18.3 69.6 0 7.5-.8 15-1.5 22.6-.4 4-.8 7.8-1 11.7-.5 6.1-3.6 9.6-9.7 9.7l-4.5.2c-6.1.2-12.4.5-19-1.5-3.2-15-8.5-29.4-13.9-44-3.3-9.2-6.6-18.3-9.5-27.8ZM676 175a274.3 274.3 0 0 0-107.7-22.3c-34.8-1-58.8 17.8-72.8 48.1l-7.9 16.8a523 523 0 0 0-32.1 79.2c-6.5 23-10 46-13.7 71.8l-.6 4.6c110.7-63.6 226-93.4 351.7-69.7-11.2-31.4-32.2-54-52.8-76.3l-1.7-1.9A225.9 225.9 0 0 0 676 175Zm30.9 3.7a143.6 143.6 0 0 1 45.8 24.7c46 32.5 76.4 74.6 96.3 125-10.5-3.3-20-8-29.3-12.8L811 311c-4.6-2.2-7.4-8.6-10-14.5l-2-4.3a317.8 317.8 0 0 0-89.7-109.1 6.4 6.4 0 0 1-2.4-4.6Z" fill="#000"/></g><g transform="translate(791 871)"><path d="M169 101c4.8-14.2 4-16.2-9.8-18.7-10.2-1.8-19.3-6.3-29-9.4-11-3.5-18-13.8-29.5-16.5-6 29.8 33.7 56.5 68.2 44.6Z" fill="#fff"/><path fill-rule="evenodd" clip-rule="evenodd" d="M97.6 96.6a76.7 76.7 0 0 0 67.5 21.2l6.4-2.5c4.8-1.9 9.2-3.5 13.2-5.8 5.2-3 9.3-9.2 4.8-13.8-10-10.3-5-16.2 4-22.2 4-2.6 6.4-6.2 4.3-10.7-2.7-6-8-3.8-12-2a50 50 0 0 1-15 3l-2.4.3c-24.8 2.8-44.9-9-64.8-20.5l-.6-.3c-11.8-7-19-4.6-20.5 9.2a50.7 50.7 0 0 0 15.1 44.1Zm61.6-14.3c13.9 2.5 14.6 4.5 9.7 18.8-34.5 11.8-74.2-15-68.2-44.7 6 1.5 11 5 15.8 8.6a49 49 0 0 0 13.7 8c3.3 1 6.5 2.2 9.7 3.4 6.3 2.4 12.5 4.7 19.3 6Z" fill="#000"/></g><g transform="translate(653 805)"/><g transform="translate(901 668)"><path d="M99.8 182.6c-8.7 16.5-33.4 25.7-48.5 18.9-4.3-2-6.2-5.8-7-10-.5-2.7.9-5.3 3.3-6.5 4.6-2 5.8 2.3 8.6 4.8 7 6 13 .7 19-3.4 5.8-4 9.1-8.5 4.3-14.7-10.5-13.1-14.8-29.2-21.8-44-3.1-6.5-5-13.5-3.8-21 .5-3.3 1.9-5.5 5.6-5.6 2.8 0 5 .8 5.9 3.8 7.5 26.3 23.3 48.6 34.6 73.1.5 1 0 2.5-.2 4.6Z" fill="#000"/></g><g transform="translate(610 680)"><path d="M215.1 76.6c5-12 9-29.4 24.1-22.5 20.7 9.4 13.9 30.7 9.7 47.4-1.6 6.3-14.5 15.9-18.3 14.3-16.3-6.8-19.2-21.7-15.5-39.2ZM442 113.4c-8.6 7.5-17 7.6-22.2-1.5-9-16-8.6-32.8 3.3-47.2 2.5-3 13.8-3.6 16.3-1 14 15 14.6 31.8 2.6 49.7Z" fill="#000"/></g><g transform="translate(610 680)"/><g transform="translate(774 657)"><path d="M104.9 38.7C82.4 47 60.2 43 38.3 43c-3 0-6.3-2.2-9.2-4-2.7-1.5-4.4-4-3-7.4 1.5-3.7 4-5 8-4.5 27.2 3.7 53.7.8 79.9-7 5-1.6 13.3-8 16.2 1.6 3 10.2-6.8 10.8-13.4 13l-12 3.9ZM260.5 33.1c-7.2 2.7-13.5 5.3-19.9 7.6-2.4.8-5.1.9-6.8-1.8-1.6-2.4-1-4.4.5-7 13.4-22 56.2-24.9 71-4.4 1.9 2.4 3.3 5 4.2 7.8 1.3 4.1 2.4 9.2-2.2 11.5-4.3 2.2-7.7-1.1-10.7-4.5-14-15.5-17-16.3-36-9.2Z" fill="#000"/></g><g transform="translate(0 559)"><path d="M1721.2 1194h-235s-39.6-69.5-42-145.1c-.9-24.9 11.2-81.4 6.6-222-3.2-99.7-19.3-218.5-32.2-248.4-9.8-22.6-44-67-79.1-87.4-43.4-25.3-59-78.3-58.2-99.2.8-21 10.3-47.6 26.3-47.6 15.9 0 19.7 29.3 26 58.9 23.5 109.3 84.3 42.8 76.4-15-4.6-32.6-24-66.3-45.4-70.9-22.2-4.8-40.7-2.6-45.7-10.5-5-8 1.5-31.8 18.7-37 17.1-5.3 37.2-16.3 67.7 7.6 30.5 23.8 28.1 25.8 29 6.6 1.7-33-40.7-105.3-48.3-128.2-7.7-22.9-.4-32 11-38.2 11.5-6.2 40.3 35.3 49.2 49.9 17.4 28.8 32.3 119.9 45.2 114.2 12.9-5.8 7.1-68 3.7-99.5-3.7-33.7-12.2-76.2 4.5-75.2s31.4 60.8 42.8 90.8c17 44.7 1 152.4 17.7 150.5 16.7-2 24.3-66.4 23.9-76.9-.5-10.5-1.1-55.9 12-61.8 22.1-9.8 32 53.4 33 73.5.8 21.3-10.1 62.8-18.2 83.3s-37.5 126.6-52.6 156.4c-19.2 37.8-1.2 75.3 14 105.8 15.3 30.5 93.1 259.2 113.9 291.3 20.7 32.2 40.8 83.9 47.7 138.7 7.5 60.7-12.6 135.5-12.6 135.5Z" fill="#fff"/><path fill-rule="evenodd" clip-rule="evenodd" d="M1411 584a257 257 0 0 1 19.1 77.4l13 135.4c.4 10.2.5 20.5.6 30.7.1 19.7.3 39.3 2.8 58.6 2.8 21.7 1.7 43 .5 64.2l-.7 15.6c-.4 9.7-3 19-5.5 28.3a111 111 0 0 0-5.5 33c1.3 36.9 5 73.3 17 108.8 7 21 15.6 40.8 30.9 58h11.7c-3.2-10.5-8.4-20-13.6-29.5-3.7-6.8-7.4-13.5-10.4-20.7a217 217 0 0 1-15.8-62.3c-2.9-28.7-5.6-57.4-.8-86.4.8-4.5 2.2-8.6 3.4-12.4 1-2.7 1.8-5.2 2.3-7.6l1.8 7.1c18.4 73.4 37 148 87.6 211a59 59 0 0 0 16.8 0c-18.3-23.4-36-46.6-46.7-73.5a606 606 0 0 1-28.1-84c-2.4-10-5-20-7.6-29.8-4.5-17-9-34-12.1-51.4a1042 1042 0 0 1-15.7-166.7c-.3-15-.5-30.2-2.7-45.2-5.2-37-10-73.9-14.8-110.8l-1.8-13c-3.4-26-10.9-51-28.3-70.6-23.1-26-47-51.5-73-74.6a137.7 137.7 0 0 1-42.6-69.2c-4.6-16.7 1.3-31 8-45.4 1.4-3.2 4-6 7.9-5.4 4 .6 8 2.8 8.1 7 .3 7.3 2.3 14.3 4.3 21.2 1.5 5.4 3 10.7 3.8 16.2 2.8 21.2 12 39.8 24.5 56.5 11 14.5 42 15.5 50.4 2.5 12.8-20 21.3-40.7 19.5-65.6-2.7-35.3-33.5-92-83.8-86.7l-.6.1c-3.5.4-7.7.8-9.7-3.1-2.3-4.4 0-9.4 2.6-11.8 1.9-1.7 3.5-3.5 5.2-5.4 3.4-3.7 6.8-7.4 11.6-9.7 18.6-8.8 44.7-2.5 62.7 15.4a121.1 121.1 0 0 1 33.4 60.3c.9 4 2.1 10.1 9 8 6.4-1.9 5.5-8.3 4.5-13.1-1-5.2-2.4-10.3-3.7-15.4-1.2-4.3-2.4-8.6-3.3-13l-6.7-32.3-7.3-35c-3.8-17.4-11-33.5-18.4-49.6-3.7-8.2-7.4-16.4-10.7-24.8-1.4-3.7-3.2-7.3-5-11-4.3-9-8.8-18-8.2-28.5.5-11 4.2-12.9 13.2-7.2a68.9 68.9 0 0 1 23.3 26.7c16.4 30.1 31.6 61.3 40.4 94.3 1.8 7 4.4 13.7 7 20.5 6.1 16.1 12.3 32.4 8.6 50.7-.9 4.6-.8 11.3 6.5 11.7 7.3.4 8-5.4 8.6-10.6l.1-1c1.5-11.7 2-23.3 2.6-35 .6-13.8 1.3-27.6 3.4-41.3 1.8-11.7 1.3-23.7-.6-35.7-1.5-9.3-2.2-18.8-3-28.2-1-13-1.9-26-5-38.9-1.8-7.8-1.4-16 1-23.7a243 243 0 0 1 29.4 60.1c10.3 30.3 13 62.3 14.7 94.3 1.3 23.8 3.7 47.5 6 71.3l1 11.3c.6 5.7 1.2 12 7.4 15 4.7-.5 6.7-3.7 8.4-7.2 18.6-38.8 32.3-78.7 29.2-122.6a33.2 33.2 0 0 1 8-23.3c4 2.3 5.1 5.7 6 8.9.8 3.7 1.7 7.3 2.7 11 3.4 13.6 6.8 27.3 9.2 41 1.5 9 1.3 18-.5 26.8a1343.8 1343.8 0 0 1-64.7 203.6c-6.7 17-9 34.2-11.3 51.7l-.4 2.7a59.6 59.6 0 0 0 4.5 30l12.6 31.5c13.4 33.9 26.8 67.7 43.2 100.3 12.3 24.6 20.6 51 28.8 77l4.6 15 1.4 4c8.1 25.5 16.3 51.3 22.7 77.5l4.4 17.7c5.6 22.5 11.2 45 14 68 4.2 32.9 3.8 66 0 99.2l-1.4 13.8c-3.5 34.1-7 68-27.2 97.4h34.6l6-13a205 205 0 0 0 14.7-37.3c11-43.8 11-87.2 1.6-131-2.4-11-5.6-21.8-8.9-32.5a280.3 280.3 0 0 1-11.6-48.6c18.1 25.6 24.7 55 31.3 84.2l1.5 6.6c8.5 37.5 9.3 75.8 8 114-.5 17-4.6 33.3-8.8 50l-1.7 6.7c3.9.8 8 .9 11.8 0l.7-1.4c3.5-7.1 6.7-13.5 7.8-20.8 3.8-25.3 6.5-50.7 6.5-76.1 0-38.4-9.2-75.7-18.6-112.8l-1.5-6.9c-1-5.5-2.2-11-4.8-16.2-11.3-21.8-22.2-43.8-33-65.7l-21-42c-12.3-24.5-21-50.5-29.8-76.6a703.1 703.1 0 0 0-23.6-63.4c-9-20-17-40.4-25.2-60.9l-11.9-29.3c-1.3-3.3-2.7-6.5-4.2-9.8-6.1-14.2-12.3-28.4-12.4-44.5-.2-27.5 9.8-52.2 19.7-76.8 3.9-9.6 7.8-19.1 11-28.8 2.7-8 5.7-16 8.7-23.9a376.2 376.2 0 0 0 14.1-42c1.7-6.5 3.7-13 5.7-19.4 2.6-8.5 5.2-17 7-25.8 1.3-6 2.8-12 4.3-17.9 5.6-22.3 11.1-44.5 3.9-68.3-2-6.4-3-13-4.2-19.7-1.5-8.9-3-17.7-6.4-26-4.2-10-10-20.9-22.1-20-11.8 1-15 12.7-17.2 22.7-1.2 5.3-1.7 10.6-2.3 16l-.8 8-1.8 16.7c-2.1 21.2-4.2 42.7-15.2 63.3l-1.6-11.3c-1.2-7.6-2.3-14.7-2.4-21.8a389 389 0 0 0-9.9-93.7c-8.3-32.4-22-62.1-38.2-91-4.2-7.3-11.6-8.1-19.2-6.4-7.8 1.8-8.9 8-9.1 14.9-.7 23 .5 46 6.3 68.5 6.7 26 4.7 52-.1 79.5-4-4.6-4.6-9.6-5-14.3-.4-3-.7-5.9-1.8-8.6-5.5-12.9-10.6-26-15.6-39l-11.2-28c-8.4-20.6-20.2-39.2-36.2-54.6-7.7-7.4-17.6-12.4-28-7.2-11 5.6-14.7 16.5-12.6 28.4a114 114 0 0 0 8 28.1l7.4 15.9c7.5 15.8 15 31.7 21.4 48a215.3 215.3 0 0 1 13.4 52c-3.8 1-5.5-.3-6.9-2-15.4-18.3-34.6-26-59-27-19.6-.8-44.7 19.3-50.5 36.6-4.1 12.4 7.3 28 20.2 27.9h1.2c11.9-.1 23.6-.2 34.4 6.8 26.5 17.2 35.3 43.3 37 72.9 1 17.6-1.8 34-17.9 44.9-7.5 5-17 8.1-23 .3a107.2 107.2 0 0 1-24.2-57c-2.4-13.2-4.9-26.4-11.6-38.4-4-7.1-9.2-10.7-17.2-11.1a29.4 29.4 0 0 0-30 24c-8.4 44.2 2.5 82.5 35 114.1 25 24.4 49.9 48.8 74.6 73.5 9.7 9.7 16.2 21.3 21.6 34.2Zm277.8 547 .6-3c5-30.2 6-58.5 6.1-88 8 37.6 1 72.7-9.4 107.5l.4-3a689.8 689.8 0 0 1 2.3-13.4Z" fill="#000"/></g></g></g></svg>