<svg xmlns:xlink="http://www.w3.org/1999/xlink" xmlns="http://www.w3.org/2000/svg" viewBox="0 0 1744 1744" fill="none" shape-rendering="auto" width="1744"  height="1744" ><desc>"Notionists" by "Zoish", licensed under "CC0 1.0". / Remix of the original. - Created with dicebear.com</desc><metadata xmlns:dc="http://purl.org/dc/elements/1.1/" xmlns:cc="http://creativecommons.org/ns#" xmlns:rdf="http://www.w3.org/1999/02/22-rdf-syntax-ns#"><rdf:RDF><cc:Work><dc:title>Notionists</dc:title><dc:creator><cc:Agent rdf:about="https://bio.link/heyzoish"><dc:title>Zoish</dc:title></cc:Agent></dc:creator><dc:source>https://heyzoish.gumroad.com/l/notionists</dc:source><cc:license rdf:resource="https://creativecommons.org/publicdomain/zero/1.0/"/></cc:Work></rdf:RDF></metadata><mask id="viewboxMask"><rect width="1744" height="1744" rx="0" ry="0" x="0" y="0" fill="#fff"/></mask><g mask="url(#viewboxMask)"><g transform="translate(-436 -436) scale(1.5)"><g transform="translate(531 487)"><path d="M554 727.7c-99.2 297-363.8 388.6-503.7 19.8-19.3-50.7 31-69.5 66.2-91.9 24.1-15.3 36.8-28.5 35.3-42.2-7-64.4-36.9-243.8-36.9-243.8l-3-5.8s.7-1.6-2.2 1.2c-3 3-9.9 34.2-37 34.2-24.5 0-49.2-10.9-61-86.3C7.2 285.6 9.6 214 40 201c12.5-5.3 24-7.2 35.2-.8 11.3 6.4-13-22 112-126C268.4 6.4 396.7-3.5 448.5 8 500.3 19.5 552 44.8 574.9 98.5c27.8 65-25.9 114.3-14 262.5-2.2 53.6.8 171.2-146.6 210.6-28 7.5-19.3 48.4 22.7 58.4 67 21 117 72.3 117 97.9" fill="#fff"/><path fill-rule="evenodd" clip-rule="evenodd" d="m554 266.2.1-1.4c4.1-36.4 8.2-71.7 27.1-103.4 6.5 4.4 5.7 10 3.7 15.2-19.9 51.2-18 104.4-16.2 157.6l.4 14c2.1 66.4-14.5 126.8-58.7 177.5-15.4 17.6-35.8 29.8-56.5 40.3-21.4 11-25.9 20.1-19.2 43.6l.8 2.6c1.4 3.9 2.8 7.9-1 11.8-4.5 4.6-9.5 3.3-14.8 1.8l-.6-.1a406.4 406.4 0 0 1-137-68.3c-6-4.4-10.8-10.3-15.5-16.1l-.3-.4c-2.5-3-3-7.8.5-10.4 3.3-2.5 5.8-.5 8.7 1.8l1 .9a145.5 145.5 0 0 0 76.3 31.7c13.4 1.4 26.6.9 40 .4 7.4-.3 14.8-.6 22.3-.5 10.2 0 18.7-4.7 26.7-9.2l2.8-1.6c27.8-15.5 54.3-32.8 72.2-60.7 16.1-25 25.9-52.2 31.6-80.9 7.2-36.1 6.6-72.7 6-109.8-.3-12-.5-24.2-.5-36.4ZM50.6 190.8c21.9-1.7 34 11.2 44.3 26.3a140.4 140.4 0 0 1 22.4 61.5c.5 3.7 1 7.6-1.2 11.3-4.5.6-4.9-3-5-5.6-.5-20.7-9.7-38.7-18.9-56.1-6.6-12.5-16.2-24.6-31.4-27.6-17.2-3.5-33 12-40.8 32.2-14.5 37.6-12 74.6 1.4 111 5.8 15.9 13.1 32.1 27.8 43.2 14.8 11.3 32.7 9.3 43.6-5.7l2-2.5c2-2.6 4-5.1 5-8 2.1-5.8 5.4-11.2 11.3-10.4 6.8 1 8 8.3 8.7 14a3661 3661 0 0 0 22 156.7l5.9 38.8c2.6 17.1 5.6 41.7 3.6 52.1a28 28 0 0 0-.3 2.2c-.4 2.8-.6 5-4.2 5.5-4.9.8-7-2-7.7-6.4-2.3-17-3-23.6-4-49.6-.9-25.2-5.6-50-10.4-74.9l-5-27c-5.2-30.8-10.3-62-10.8-97l-2 3c-7.6 11.3-13.7 20.5-24.5 24a40.5 40.5 0 0 1-46.1-12.5 127.8 127.8 0 0 1-28.8-55.8c-8.4-34-9.9-67.1.9-100.6 5.2-16.1 23.7-44.7 42.2-42Zm34.6 127.5c4.4 3.2 8.4 6 12-5.4-1.1-42.2-14.7-69.2-35.8-70.3 11.2 14.6 22 28.8 23 48.5a32.3 32.3 0 0 1-10.7-8.8c-2-2.2-4-4.4-6.5-6l-3-2.4c-4.8-3.6-9.7-7.4-17.8-4.5 3.8 5.8 9 10 14.3 14 6 4.7 12 9.3 15.6 16.5-10.6 7.7-15.2 17.7-9.7 29.9 4.8 10.5 11.9 19.2 25.9 19.8-.6-6.3-4.7-10.9-8.8-15.4-5-5.4-9.7-10.6-7.5-18.6 3.2-1.5 6.2.7 9 2.7Z" fill="#000"/></g><g transform="translate(178 1057)"><path d="M1314.4 694.4 10.7 691.1S44 481.4 106.9 362.2c73-138.7 176.8-250.5 390.4-316.9C516 39.5 669.8 114 669.8 114l108.7-70s175 48.2 241.2 85.5c84.2 47.3 179.3 187 223.1 296 46.6 115.8 71.6 269 71.6 269Z" fill="#fff"/><path d="M898.5 694.4c-13-1.7-13.5-12.7-17-20.7-4.4-10.4-9.8-13.3-18.7-5-6.5 5.9-10.2 4.1-14.6-3.3-5.3-9-14-16.3-3.7-27.8 3.9-4.2 0-9-5.4-10.3-5.5-1.4-7.4-5.4-8.1-10.1-1-6 4.6-6 8-8.2 9-6.1 16.2-13.9 18.6-25 .8-3.6 1.8-7.7 5.6-7.2 13.2 1.8 21.6-7.9 32.4-12.3 5 1.7 6.3 6.4 8 10.6 2.6 6.2 5.3 12 13.9 9.6a5.7 5.7 0 0 1 7.1 4c1.8 5.6 4 10 10.7 11 2.7.5 4.1 3.4 3.3 6-1.7 5.8.9 8.8 5.7 11a4.4 4.4 0 0 1 2 6.5c-8.5 12-5.3 24 .3 37.5-16.8 4.4-28.3 13.8-29 32.9-5.8.8-11.9.8-19 .8ZM578 685.5c-10.9 6-17.8-4-27-5.2-10.4-1.4-13 1.5-13.3 10.5-.2 5 .6 11-6.6 11.8-13.3 1.6-27.4-3.7-27.9-11-.6-9.7-3.7-12.8-12.6-7.6a12 12 0 0 1-14.3-1.2c-4.3-3.6-.2-7.8.8-11.7 2.5-11-.1-21.4-5.5-31-1.8-3-4.8-6.8-1.6-8.6 11.5-6.5 8-17.2 8.6-26.7.6-9.2 5.8-7.7 11.5-5.8 7.6 2.5 13.6 5 21.5-2.8 5.6-5.5 18-4.6 26.2-1.8 6 2.2 11 5 17.8 1.5 4.4 14.2 11 24 26 25.9 6 .7 5.5 6 2.6 9.8-8 10-1.5 21-2.4 31.4-.4 4.4 5.7 4 9.8 5.8a185 185 0 0 1-13.5 16.7ZM137.7 703c-11.8-5-8.6-17.9-15.8-25.6-5.7-6.1-8.7-6.8-14.2-2.6-8.5 6.5-14.6 8.6-20.2-4.2-4-9-13.3-15.4-3.5-26.4 2.8-3.2-2-6.6-5.6-8.4-5.3-2.7-8.8-6.6-8.1-15 15 2.4 17-13.7 27.3-19.3 3-1.6 2.6-5 2.5-8-.2-5 3.6-8.3 7-6.6 11.1 5.3 15.8-3.1 22-8.8 9.6-9 12.2-8.3 15 4.5 1.5 6.8 3.1 12.6 12.1 11 1.9-.4 4.8.1 5.9 1.4 8.4 10.3 18.9 18.8 25.4 30.6 1.2 2 2 4.5.5 6-12 12-8 24 1 37-17.5 5.1-34.5 10-32.3 33.5-5.8.8-11.8.8-19 .8ZM1249.2 694.4c-15.3-1.7-12.1-16.3-17.8-24.2-6.8-9.4-11-8.8-17.9-3-7.2 6.2-12.8 9.5-15.4-3.7-.6-3-3.8-5.6-6-8.3-3.7-4.9-5.1-9.1.6-14.3 6.7-6 4.8-11.5-3.7-14-6-1.7-10.2-5.2-10-11.4.1-6 6-4.6 9.8-5.4 3.7-.7 6.8-3 7.2-6.4 1-7.2 6-9.7 12.5-11.2-2.1-11-.4-17.6 12.8-13.2 8.5 2.9 10.8-6.7 16-10.2 10.1-6.6 13.3-6.6 16.2 5.3 1.9 7.8 4.1 12.8 13.5 10.7 4.4-1 5.5 3 6.5 6.3 1 3.4 2.2 6.8 6.3 7.2 13 1 9.3 7.4 4.5 13.7 2.7 5.5 9.2 2.9 12.7 7.8-10.6 12.2-10.1 25.5-1 38-1.5 5.2-5.3 5.6-8.5 5.4-15-.6-14.8 16.2-24.7 21.6-2 1 1.3 5.3 2.9 8.6-5.5.6-11 .9-16.5.7ZM929.3 143.3c-8.8-6-16.5-11.5-17.4-22.6-.5-5.6-4.3-9.8-10.4-11.6 8.4-10.4 9-33.3 9-33.3s-3 8.6 73.4 31.2c-8.3 20.7.6 30.5-19 44.3-9.2-9.3-23-3.5-35.6-8ZM906.1 343.5c-18.4 3.2-22-11.2-26.2-21.9-4.1-10.4-8.5-7.9-15.2-4.3-4.3 2.2-7.4 10.2-13.9 3.9-8.1-8-12.6-23.7-7.6-29.2 6-6.6 4.3-10.5-2.9-13.5-5.5-2.4-9.6-6-9.6-12.2-.1-7.4 7-5.9 11-8.3 7.6-4.6 9.6-13.5 14.6-20.1.5-.6.3-1.7.7-2.5 1.8-4.3 38.3-22.4 40-19.5a63.6 63.6 0 0 0 26.8 24.7c4.2 2.1 8.7 9.5 14.7 11.3 2.8 5.8-3.5 8.2-3.2 12 3 4 8.8 2.3 11.4 7.5-7.2 10-6 21-1.4 32 2.4 5.4 1.5 9.2-4.2 11a36.9 36.9 0 0 0-25.8 25.7c-1.3 4.1-4.6 4.5-9.2 3.4ZM586.7 251.6c2.3 7.1.4 15.3 10.8 18-8.2 11.5-7.7 22.6-1.7 33.9 2.7 5.2 1.3 8.8-4.9 10.4-14.4 3.6-26 9.8-27.4 27.1-.3 4.3-4.8 4.1-7.7.8-1.8-2.1-.8-6-4.6-7.6-2 3.6-1.2 10-7.9 9.2-6-.7-5.1-5.3-6-9.6-1.4-8-9-13-10.1-21.1-7.6-.7-11 5.2-16 8-5.4 3.2-9.1 3.6-11.8-3.3-3.9-9.7-16-17.8-4-30.2 3.7-3.8-2.2-7.3-6-9.1-5.4-2.7-9.3-6.7-9.3-12.7 0-6.6 8-4.4 10.2-7.3 6.3-8 18-10.9 19.8-23.7 1.6-11 10.2-1.7 16-2.7 2.5-3.3 4.7-7.5 8-10.4 10.4-9.1 14.6-8 20.2 4.6.8 2 1.8 5.4 2.8 5.5 13.9.5 18.2 14.8 29.6 20.2ZM143.3 295.1c2.7-5.3 5.8-9.6 7-14.4 4.4-20 13-37.3 32.2-46.3 8.7-4 6.9-15.5 15.2-18.7 5.5 2.4 4.5 7.4 6 11.1 1 2.8 1.6 7.9 4 7.3 14.6-3.4 16.6 12.7 26.6 16.7 8 3.3 5.4 15.7 15 19.8-13.8 12.6-10.7 25.3-.6 39.4-17.8 5.8-34.9 12-36.2 33.5-6.3-.4-5.8-7-13.5-9-2-.6-2 7.2-8 6.8-3.6-9.9-8.3-19.3-14-28-9.4-.4-14.8 8.3-24 9.7-4-8.7-12-16-9.7-27.9ZM1062.8 243.9c-1.2-6.5-6.1-7.5-10.4-9.3-4.6-2-5.8-6-6-10.3-.3-4.5 3.7-5.2 7-6 11-3.1 14-14.2 19.2-22 6.5-9.8 23.7-15.8 31.1-6.7 20.1 24.6 41 48.7 57.5 76 .4.7.2 1.7.5 4.3-19 1.9-28.3 15.2-33.6 34-6.5-7.7-12.5-11.2-21-4.7-1.4-10.1-9.3-15-12.1-22.9-2.7-7.5-7.2-5.7-12-3-15.8 9-16 9-24.4-7.7-1.7-3.4-3.2-6.8-4.5-9.7 1.4-5.6 8.5-5.5 8.7-12ZM357.9 422.2c2.8-.5 5.2-.6 6.6-1.9 11.6-9.9 22.7-6.4 26.4 8.8 1 4.2 2.8 6 6.8 6s7.6 1 9.9 6.1c-9 8.1-2 20.3-6.2 29.8-4.1 9.3-11 17.4-17.7 27.5-8.6-10.8-20.9-6.7-31.5-9.2-12-2.8-19.3-8.3-22.6-19.8-.4-1.2-.4-2.8-1.2-3.6-12.1-10.7-6-22.3-2.5-34.2 5-17 12.5-20.4 27.5-11.1 1.4.7 3 1.2 4.5 1.6ZM1101.3 466.4c-.9 13.8-15.8 18.3-16 34.4-10.6-11.1-21.4-10.2-31.7-10.8-12.8-.7-20.4-7.2-22.8-19.3-1.5-7.5-6.2-11.7-12.8-15.4 3.8-9.5 6.4-19.4 7.7-29.5.9-6.5 17.8-13.4 22.3-8.6 10.3 11.2 17 8.4 22.5-5 8.8 4.9 18.7 6 21.6 18 1.6 6.4 13.8 1.8 15.8 11.7-12.6 4.7-4.5 15.4-6.6 24.5ZM699.8 420.5c11.8 9.1 16-2.6 23-7.7 7 5.8 18.6 5.2 20 18.5.8 6.3 13.1.6 15.2 10.3-6.6 4.4-7.8 10.6-6 19.5 3.1 15.9-13.4 23-17.4 38.2-12.8-13-28.5-5.7-41.7-12.2-14.2-7-9.6-27-26.3-31.3 6.6-10.4 9-20.7 10.2-31.6 1-8 14.5-10.1 23-3.7ZM394.5 130.3c-4.2 5.8-5.3 12.5-11.3 17.8-8.8-11.7-22.3-5-33.5-8.8-5.9-1.9-10.9-5-15.6-8.1-6.8-4.5-5.9-18.2 1.3-23 14.3-9.5 27-21.4 45.4-23.8 10.8-1.4 18.8 4 31.5 4.1-9 9.7-8.5 18.3-9 26.5-.4 6.4-2.4 11.5-8.8 15.3Z" fill="#000"/><path fill-rule="evenodd" clip-rule="evenodd" d="M1290.7 617.2a2582 2582 0 0 0 17.3 77.2c4.7 0 8.2 0 11.4-.9a482.5 482.5 0 0 1-11.7-60.7c-2-13-4-26.1-6.6-39-6.2-30.4-13.2-60.5-22-90-10-33.6-21.5-66.9-35.3-99.3a743.8 743.8 0 0 0-48.2-97.7 685.2 685.2 0 0 0-64.4-91.1v-.2c-20.5-23.6-40.8-47-66.5-65.8-12.5-9.1-25.9-16.7-39.2-24.2-9-5.1-18.1-10.2-26.9-15.8-27.4-17.6-57.8-27-88.2-36.2-14.4-4.4-28.8-8.9-43-14.2a192.7 192.7 0 0 0-31.6-8c-18.4-3.5-37-7-53.2-19.4-2 8.4-7.7 9.7-13.5 11-3.1.7-6.2 1.4-8.8 3.2a1810.6 1810.6 0 0 1-54.4 36 3387.4 3387.4 0 0 0-30.4 20c-2.2 1.4-4.1 2.8-6.7 1.3-10.3-6-21.5-10.1-32.7-14.2-5.9-2.1-11.7-4.2-17.5-6.7l-17-6.9c-13.5-5.4-27.1-11-40-17.5-7-3.5-14.2-6-21.5-8.3-12.4-4-24.8-8.1-34.9-17.5-3.5-3.4-9.7-3.3-13.5 2-5.7 8.3-14.6 11.2-23.6 14.2l-15.8 5A426.6 426.6 0 0 0 410.4 68a1350.1 1350.1 0 0 0-82.1 39 403.3 403.3 0 0 0-88.4 61 601.8 601.8 0 0 0-102.2 122.5A768.3 768.3 0 0 0 84.5 390a897.7 897.7 0 0 0-32 82.8 714 714 0 0 0-20 65.8C30.7 545.8 29 553 27 560c-3 11.9-6 23.7-8.4 35.6-6.3 32.9-11.6 66-16.2 99 6.3 0 11.6 0 17.1-1.1 1-18.1 4.4-35.3 7.7-52.2l2.5-13a785.6 785.6 0 0 1 25.4-106.1l4-12C71.9 472 84.5 434 101.5 397.4c22.8-49.3 49-96.5 81.7-140.2a540.3 540.3 0 0 1 79.7-86.4c27.7-23.9 59-41.7 91.8-58.2 11.5-5.8 23.3-11 35-16.3A604.5 604.5 0 0 0 435 74.7c9.6-5.3 15.4-5 19.7 7.3a218.6 218.6 0 0 0 40.4 68.5 249 249 0 0 0 140.7 85.6c56 12 105.3-.3 146-40.4 22.1-21.6 43.2-44.9 54.9-74.4 4.5-11.5 8.6-23.3 12.7-35.3l6-17 34 10.8c10.7 3.5 21.5 7 32.4 10.3 45.7 14 86.6 38.4 125.6 65.4 43.3 30 75.4 71.4 105.2 114.2a769.7 769.7 0 0 1 56.5 97.6 766.7 766.7 0 0 1 42.5 102.7c11.7 35.3 22.3 71 30.5 107.6l8.6 39.6ZM615 98.2c8.3 3.9 16.7 7.8 26 9l4.5 2.2a52 52 0 0 0 17 6.2c-3 4.3-6 8.3-9 12.2-6.4 8.1-12.4 16-16 25.4l-2.3 5.9c-2.2 5.5-4.4 11-5.2 17-1.1 9.1-5.9 11.4-15.2 9.6a127 127 0 0 1-42.5-19.3c-10.1-6.3-20-12.9-30-19.4-13.3-8.8-26.7-17.6-40.5-25.8-17.4-10.5-25.2-27.1-32.4-44.3-3.1-7.6 3.4-12.6 9-16.4 10-7 21.4-7.2 32.9-4.2 19.4 5 37.5 13.2 55.7 21.4 11.6 5.2 23.1 10.4 35 14.8 4.4 1.6 8.7 3.6 13 5.6Zm130.6 92.4c-3.2 5-6.6 10-13.7 8-5.9-1.4-7.3-6.5-8.7-11.5l-.7-2.4a130 130 0 0 0-43.4-64c-22.6 17.1-30.8 41.4-37 66.8 0 .7-.3 1.4-.4 2.1-1.4 6.4-2.8 12.7-12 12-22.1-2-43.4-6.8-62-20.6-13.8-10.3-27.9-20.2-42-30a4158 4158 0 0 1-18.5-13c2 8 6.4 15.1 12.5 20.7a281.2 281.2 0 0 0 73.4 49.3 180 180 0 0 0 110.5 13.2c37.7-6.6 67.1-28.5 90.5-58.3l3.8-4.7c6.6-7.9 13.5-16.2 15-29.5-4.2 4.2-8.1 8.5-12 12.7-10.2 11.2-19.6 21.5-32.3 28.2a60.7 60.7 0 0 0-22 19.5l-1 1.5Zm83.8-93.5a18 18 0 0 1-7.1 8.8c-27 25.5-56 49-86.5 70.3a145.5 145.5 0 0 0-46.4-65L711 97c21.5-14 42.7-27.8 63.7-41.8 4-2.7 6.2-1 8.8.9l1.1.8a45 45 0 0 0 27.3 9.3c20.8-1 26.7 10.8 17.4 31Z" fill="#000"/><path d="M217.5 694.4c1.2-22.7 3.4-45.5 5.8-68.3 2.7-26.1 5.4-52.2 9.6-78.3 4-24.3 8.7-48.4 14.2-72.3 9-39.3 22.1-77.4 44.7-111.5 3-4.6 6-9 12-4.9 5.3 3.6 2.4 7.4.6 12.1-9.5 24-18.4 48-27.3 72.2A637.5 637.5 0 0 0 249.8 553c-5.9 33.8-8.2 68.2-12 102.3-1.3 12.3-2 24.6-3.2 38-5.5 1.1-10.7 1.1-17 1.1ZM1123.7 694.4c-9.2-36.8-12.3-74.6-22.4-111-7.7-28.1-14-56.8-24-84-7.1-19.3-14-39-23.4-57.6-12.7-25-23.3-51.2-34.6-77-1.3-2.9-3-6.3 1.2-8.9 4.5-2.6 7.5-.4 10 2.7 3.8 5 7.8 10.2 10.6 15.9 10 20.4 19.6 41 29.5 61.6a603.2 603.2 0 0 1 34.2 95.5 618.8 618.8 0 0 1 21.7 96.5c2.7 21.4 7.2 42.7 8.8 65.3-3.4 1-7 1-11.6 1ZM612.5 167c-8.2 2-11.1-2.7-12.5-8.4-1.5-6.2.8-11.7 6-15.5 3.3-2.4 7-2.4 10.9-.6 4.8 2.3 4.6 6.6 4.7 10.8.3 6.3-3.1 10.3-9 13.7ZM758.4 135.5c1.7 5.9 3 11.4-1.7 14.9-4.2 3-9.7 6.7-14.8 2-5.5-4.8-3.8-11.3-.2-16 4.2-5.4 10-8 16.7-1Z" fill="#000"/></g><g transform="translate(266 207)"><path d="M286.1 399.8c9.9-14.7 13-31.3 21.2-46a328.8 328.8 0 0 1 57-72.4c26.3-26 54.7-49.7 88-66 45.4-22 93.8-33.6 144.2-30.8 32 1.9 63 10.8 92.8 24.6 29.7 13.7 102.5 9 155.6 113.1C906 442.4 866.2 503.8 873 565.1c6 52.4 27 99.3 32 151.8 5.3 56.9 20.2 141.3 1.7 200.3-4.3 13.8-13.9 17.3-24.3 17.5-22.9.5-44.5 8-66.7 10-25 2.1-49.3 8.8-74.6 9.7-18 .7-29-7.3-36.5-20.3a118.6 118.6 0 0 1-16.7-63c.2-9-.8-13.6-12-10.4-17 4.8-34.6 3.5-52 1-3.8-.6-9 .7-9.6-6.9a37 37 0 0 1 21-5.5c50.8-.5 93.5-20.1 126.8-57.8 22.6-25.5 41.4-55.1 49-88.2 6-26.4 7.5-54.5 10-82 4.6-49.4-3.5-99.5 9.3-149.7-19.8-3-37.6-12.5-56.4-19.4a175 175 0 0 1-41.2-21.9c-11.4-8-21-10.8-34.8-6.3-41.8 13.8-84.4 12.6-127 3.2-31-6.9-61.6-14.8-91.8-22.1-18.3 58.3-44 112-86.3 156.7-4 4.2-8.1 9.6-15.1 7-6-2.2-6.8-8-8-13.6-5-24.2-13.8-46-34.3-62-10.4-8-20.5-12.5-32.7-6.2a33 33 0 0 0-17.8 27.4c-3.5 33.1-3 66.3 0 99.4 1.4 14.4 5 28.8 12 41.4 12.7 23 45.4 23.3 62.7 1.6 4-5.1 6.3-12.3 13.5-14.2 19 10.5 10.1 29.5 13.6 44.3 6.7 28.5 8.2 57.9 13.6 86.7 7.6 40.8 12.7 82.1 18.7 123.2 3.9 26.8-4.6 33-31.3 35.1-28.5 2.2-54.6 11.5-81.5 18.6-20.5 5.4-40.8 11.4-61 17.2a24 24 0 0 1-21-3.4c-1.2 2-2.7 3.2-3 4.6-1.3 7-4.8 11-12.3 9.8-7.8-1.2-11.3-6.7-10-13.8 2.4-11.8.1-24.2 3-35.5 7-25.9 5.9-52.3 6.3-78.3.6-30.9 5.9-61 8.6-91.5 2.1-24 4-48.3 7.5-72.2C231.4 641 234.1 594 246 548c10.1-39.4 17.8-79.5 29.6-118.5 3-9.7 6.8-19.1 10.6-29.6Z" fill="#000"/></g><g transform="translate(791 871)"><path d="M175 75.5c8.2-5 11.5-.1 14.5 5.4-11.4 17-50 20.1-60.7 3.4 15-5.2 31.3-1.5 46.1-8.8Z" fill="#000"/></g><g transform="translate(653 805)"/><g transform="translate(901 668)"><path d="M99.8 182.6c-8.7 16.5-33.4 25.7-48.5 18.9-4.3-2-6.2-5.8-7-10-.5-2.7.9-5.3 3.3-6.5 4.6-2 5.8 2.3 8.6 4.8 7 6 13 .7 19-3.4 5.8-4 9.1-8.5 4.3-14.7-10.5-13.1-14.8-29.2-21.8-44-3.1-6.5-5-13.5-3.8-21 .5-3.3 1.9-5.5 5.6-5.6 2.8 0 5 .8 5.9 3.8 7.5 26.3 23.3 48.6 34.6 73.1.5 1 0 2.5-.2 4.6Z" fill="#000"/></g><g transform="translate(610 680)"><path d="M407.4 122.5c13 .3 25.4 1.1 37.6 2.5 3 .4 5 3.3 5 6.7 0 3.3-1.7 5.6-4.7 7-11.2 4.8-22 8.2-33.7.2-6.5-4.5-9-8.7-4.2-16.4ZM247.6 117c7 0 7.8 3.8 7 8.5-2 10.2-20 22.4-30.4 20.5-5.9-1-10.5-4-10.7-10.5-.2-6.7 4.8-8.2 10.3-8.4 9-.3 15.8-5.2 23.8-10ZM215.1 76.6c5-12 9-29.4 24.1-22.5 20.7 9.4 13.9 30.7 9.7 47.4-1.6 6.3-14.5 15.9-18.3 14.3-16.3-6.8-19.2-21.7-15.5-39.2ZM442 113.4c-8.6 7.5-17 7.6-22.2-1.5-9-16-8.6-32.8 3.3-47.2 2.5-3 13.8-3.6 16.3-1 14 15 14.6 31.8 2.6 49.7Z" fill="#000"/></g><g transform="translate(610 680)"/><g transform="translate(774 657)"><path d="M15 39C23.8 24.6 37 20.4 51.9 19c23.2-2.3 44 8.5 65.9 12.8 8 1.5 6.8 7.5 1.4 10.7-9.4 5.7-19.5 11-31.2 7-22.5-7.6-45.1-12-68.6-4.1-6.2 2-5-2-4.2-6.3ZM255 29c15-2.6 28.7-5.3 42.2 1.5 10.8 5.5 15 14 12.9 25.5-5 3.1-7.5-.4-10.6-2.5-11.6-7.9-23.9-10-37.3-4.6-9.3 3.7-19.2 2.4-29 2.4-4.7 0-8.4-1.8-8.7-7-.4-5.5.9-10.8 6.9-12 7.3-1.7 15-2.2 23.7-3.3Z" fill="#000"/></g><g transform="translate(0 559)"/></g></g></svg>